<svg width="946" height="951" viewBox="0 0 946 951" fill="none" xmlns="http://www.w3.org/2000/svg">
<circle cx="35.5" cy="40.5" r="317" stroke="#292929"/>
<circle cx="35.5" cy="40.5" r="589" stroke="#292929"/>
<circle cx="35.5" cy="40.5" r="910" stroke="#292929"/>
<g filter="url(#filter0_d_3_323)">
<path d="M89.4547 367.783C86.0486 365.847 83.9587 362.182 84.0058 358.228L84.0899 351.158L84.0007 343.133C83.9567 339.182 86.0462 335.521 89.4497 333.587L95.545 330.123L101.551 326.514C104.91 324.495 109.09 324.495 112.449 326.514L118.455 330.123L124.55 333.587C127.954 335.521 130.043 339.182 129.999 343.133L129.91 351.158L129.994 358.228C130.041 362.182 127.951 365.847 124.545 367.783L118.455 371.244L112.449 374.853C109.09 376.871 104.91 376.871 101.551 374.853L95.545 371.244L89.4547 367.783Z" fill="url(#paint0_linear_3_323)"/>
</g>
<path d="M102.681 345.933H115V348.933H114.23V349.683H109.611C109.406 349.683 109.21 349.762 109.066 349.903C108.922 350.044 108.841 350.234 108.841 350.433V351.183C108.841 351.581 108.678 351.963 108.39 352.244C108.101 352.525 107.709 352.683 107.301 352.683H104.698C104.406 352.683 104.136 352.848 104.005 353.103L102.119 356.771C101.988 357.026 101.726 357.183 101.434 357.183H98.8315C98.8315 357.183 96.5217 357.183 99.6014 352.683C99.6014 352.683 101.911 349.683 98.8315 349.683V345.933H99.6014L99.9864 345.183H102.296L102.681 345.933ZM108.071 351.183V350.433C108.071 350.234 107.99 350.044 107.845 349.903C107.701 349.762 107.505 349.683 107.301 349.683H106.531C106.531 349.683 105.761 350.433 106.531 351.183C106.122 351.183 105.731 351.025 105.442 350.744C105.153 350.463 104.991 350.081 104.991 349.683C104.787 349.683 104.591 349.762 104.447 349.903C104.302 350.044 104.221 350.234 104.221 350.433V351.183C104.221 351.382 104.302 351.573 104.447 351.714C104.591 351.854 104.787 351.933 104.991 351.933H107.301C107.505 351.933 107.701 351.854 107.845 351.714C107.99 351.573 108.071 351.382 108.071 351.183Z" fill="white"/>
<g filter="url(#filter1_d_3_323)">
<path d="M762.115 585.804C757.672 583.279 754.946 578.499 755.008 573.341L755.117 564.119L755.001 553.651C754.944 548.498 757.669 543.723 762.108 541.2L770.059 536.682L777.893 531.974C782.274 529.342 787.726 529.342 792.107 531.974L799.941 536.682L807.892 541.2C812.331 543.723 815.056 548.498 814.999 553.651L814.883 564.119L814.992 573.341C815.054 578.499 812.328 583.279 807.885 585.804L799.941 590.318L792.107 595.026C787.726 597.658 782.274 597.658 777.893 595.026L770.059 590.318L762.115 585.804Z" fill="#383838"/>
</g>
<path fill-rule="evenodd" clip-rule="evenodd" d="M794.838 562.832L794.609 565.268C794.231 569.28 794.042 571.287 792.859 572.496C791.678 573.706 789.906 573.706 786.36 573.706H783.64C780.095 573.706 778.323 573.706 777.14 572.496C775.957 571.286 775.769 569.28 775.391 565.268L775.161 562.832C774.981 560.92 774.891 559.963 775.219 559.568C775.301 559.465 775.404 559.379 775.519 559.316C775.635 559.253 775.763 559.214 775.894 559.201C776.37 559.159 776.967 559.839 778.162 561.199C778.78 561.903 779.089 562.254 779.433 562.309C779.625 562.339 779.822 562.307 779.995 562.219C780.314 562.059 780.525 561.624 780.95 560.755L783.187 556.171C783.989 554.528 784.39 553.706 785 553.706C785.61 553.706 786.011 554.528 786.813 556.171L789.05 560.755C789.474 561.625 789.686 562.059 790.005 562.219C790.181 562.308 790.375 562.339 790.567 562.309C790.911 562.254 791.22 561.903 791.838 561.199C793.033 559.839 793.63 559.159 794.106 559.201C794.237 559.214 794.365 559.253 794.48 559.316C794.596 559.379 794.699 559.465 794.781 559.568C795.108 559.963 795.018 560.92 794.838 562.832ZM781.25 569.706C781.25 569.507 781.329 569.316 781.47 569.175C781.61 569.035 781.801 568.956 782 568.956H788C788.199 568.956 788.39 569.035 788.53 569.175C788.671 569.316 788.75 569.507 788.75 569.706C788.75 569.905 788.671 570.095 788.53 570.236C788.39 570.377 788.199 570.456 788 570.456H782C781.801 570.456 781.61 570.377 781.47 570.236C781.329 570.095 781.25 569.905 781.25 569.706Z" fill="#EC1B23"/>
<g filter="url(#filter2_d_3_323)">
<path d="M603.31 126.644C599.994 124.76 597.96 121.193 598.006 117.344L598.088 110.462L598.001 102.65C597.958 98.8043 599.992 95.2412 603.305 93.3583L609.238 89.9864L615.084 86.4735C618.354 84.5088 622.422 84.5088 625.692 86.4735L631.538 89.9863L637.471 93.3583C640.784 95.2412 642.818 98.8042 642.775 102.65L642.689 110.462L642.771 117.344C642.816 121.193 640.782 124.76 637.467 126.644L631.538 130.014L625.692 133.527C622.422 135.491 618.354 135.491 615.084 133.527L609.238 130.014L603.31 126.644Z" fill="#383838"/>
</g>
<defs>
<filter id="filter0_d_3_323" x="74" y="324" width="66" height="71.3667" filterUnits="userSpaceOnUse" color-interpolation-filters="sRGB">
<feFlood flood-opacity="0" result="BackgroundImageFix"/>
<feColorMatrix in="SourceAlpha" type="matrix" values="0 0 0 0 0 0 0 0 0 0 0 0 0 0 0 0 0 0 127 0" result="hardAlpha"/>
<feOffset dy="9"/>
<feGaussianBlur stdDeviation="5"/>
<feComposite in2="hardAlpha" operator="out"/>
<feColorMatrix type="matrix" values="0 0 0 0 0.92549 0 0 0 0 0.105882 0 0 0 0 0.137255 0 0 0 0.19 0"/>
<feBlend mode="normal" in2="BackgroundImageFix" result="effect1_dropShadow_3_323"/>
<feBlend mode="normal" in="SourceGraphic" in2="effect1_dropShadow_3_323" result="shape"/>
</filter>
<filter id="filter1_d_3_323" x="711.34" y="500.53" width="147.32" height="154.32" filterUnits="userSpaceOnUse" color-interpolation-filters="sRGB">
<feFlood flood-opacity="0" result="BackgroundImageFix"/>
<feColorMatrix in="SourceAlpha" type="matrix" values="0 0 0 0 0 0 0 0 0 0 0 0 0 0 0 0 0 0 127 0" result="hardAlpha"/>
<feOffset dy="14.19"/>
<feGaussianBlur stdDeviation="21.83"/>
<feComposite in2="hardAlpha" operator="out"/>
<feColorMatrix type="matrix" values="0 0 0 0 0 0 0 0 0 0 0 0 0 0 0 0 0 0 0.13 0"/>
<feBlend mode="normal" in2="BackgroundImageFix" result="effect1_dropShadow_3_323"/>
<feBlend mode="normal" in="SourceGraphic" in2="effect1_dropShadow_3_323" result="shape"/>
</filter>
<filter id="filter2_d_3_323" x="554.34" y="55.53" width="132.096" height="137.32" filterUnits="userSpaceOnUse" color-interpolation-filters="sRGB">
<feFlood flood-opacity="0" result="BackgroundImageFix"/>
<feColorMatrix in="SourceAlpha" type="matrix" values="0 0 0 0 0 0 0 0 0 0 0 0 0 0 0 0 0 0 127 0" result="hardAlpha"/>
<feOffset dy="14.19"/>
<feGaussianBlur stdDeviation="21.83"/>
<feComposite in2="hardAlpha" operator="out"/>
<feColorMatrix type="matrix" values="0 0 0 0 0 0 0 0 0 0 0 0 0 0 0 0 0 0 0.13 0"/>
<feBlend mode="normal" in2="BackgroundImageFix" result="effect1_dropShadow_3_323"/>
<feBlend mode="normal" in="SourceGraphic" in2="effect1_dropShadow_3_323" result="shape"/>
</filter>
<linearGradient id="paint0_linear_3_323" x1="81.3033" y1="338.461" x2="133.935" y2="341.801" gradientUnits="userSpaceOnUse">
<stop offset="0.199397" stop-color="#D92C33"/>
<stop offset="0.798195" stop-color="#FB7F84"/>
</linearGradient>
</defs>
</svg>
